<svg width="32" height="32" viewBox="0 0 32 32" fill="none" xmlns="http://www.w3.org/2000/svg">
<path d="M14 5C15.8385 5 17.659 5.29746 19.3576 5.87539C21.0561 6.45332 22.5995 7.3004 23.8995 8.36827C25.1995 9.43615 26.2307 10.7039 26.9343 12.0991C27.6379 13.4944 28 14.9898 28 16.5C28 18.0102 27.6379 19.5056 26.9343 20.9009C26.2307 22.2961 25.1995 23.5639 23.8995 24.6317C22.5995 25.6996 21.0561 26.5467 19.3576 27.1246C17.659 27.7025 15.8385 28 14 28L14 23.4C15.1031 23.4 16.1954 23.2215 17.2145 22.8748C18.2337 22.528 19.1597 22.0198 19.9397 21.379C20.7197 20.7383 21.3384 19.9777 21.7606 19.1405C22.1827 18.3034 22.4 17.4061 22.4 16.5C22.4 15.5939 22.1827 14.6966 21.7606 13.8595C21.3384 13.0223 20.7197 12.2617 19.9397 11.621C19.1597 10.9802 18.2337 10.472 17.2145 10.1252C16.1954 9.77847 15.1031 9.6 14 9.6L14 5Z" fill="white"/>
<path d="M14 14C14.6566 14 15.3068 14.0776 15.9134 14.2284C16.52 14.3791 17.0712 14.6001 17.5355 14.8787C17.9998 15.1573 18.3681 15.488 18.6194 15.8519C18.8707 16.2159 19 16.606 19 17C19 17.394 18.8707 17.7841 18.6194 18.1481C18.3681 18.512 17.9998 18.8427 17.5355 19.1213C17.0712 19.3999 16.52 19.6209 15.9134 19.7716C15.3068 19.9224 14.6566 20 14 20L14 17V14Z" fill="white"/>
<rect x="7" y="5" width="5" height="23" fill="white"/>
</svg>
